<svg id="Ñëîé_1" xmlns="http://www.w3.org/2000/svg" viewBox="0 0 792 740.3"><style>.st0{fill:#ced1e8}</style><path class="st0" d="M334.7 153.1c27.4-9.1 31-126.6-62-105.9-93 20.7-64.6 80.1-38.8 93 25.9 12.9 69.8 23.2 100.8 12.9zM663.6 142.5c-7.2 8.6-5.3 34.7-3.4 53.4 2.2 21.9 7.7 88.3 41.4 86.4 46.5-2.6 41.3-43.9 23.3-74.9-9.8-16.8-18.4-36.2-31.5-50.8-16-17.7-25-19.9-29.8-14.1zM107.4 230.6c0 17.1-12.1 31-27.1 31-15 0-27.1-13.9-27.1-31s12.1-31 27.1-31c14.9 0 27.1 13.9 27.1 31z"/><path class="st0" d="M639.6 176.4c1-10.4 1.5-20.2 1.6-29.5C643.4-67.9 423.8 5 394.1 44.6c-25.8 34.4 2.6 129.2-43.9 142.1-46.5 12.9-173.1-59.4-217-15.5-31 31 20.7 51.7-12.9 85.3-33.6 33.5-36.2 10.3-100.8 54.2-64.6 43.9 46.5 152.4 111.1 248 24.1 35.6 29.1 68.1 39.1 95.4 16.8 45.9 47.6 77.4 206.3 85.5 253.2 12.9 224.8-160.2 261-253.2 36.2-93 155-82.7 155-160.2 0-77.5-175.7 100.8-152.4-149.8z"/><path class="st0" d="M55.6 509.3c-2.3 1.3-13.9 12.4-10.1 34.4s12.7 54.4 22.6 65.2 33.7 18.9 39.9 1.7c6.2-17.3-2.6-51.7-13.6-69.1-11-17.5-30.9-36.6-38.8-32.2z"/></svg>