<svg xmlns="http://www.w3.org/2000/svg" viewBox="0 0 365 121.5">
									<style>
									.st0{fill:#7f7f7f}.st4{fill:#c6c6c6}
									</style>
									<path class="st0" d="M148 31.2V13.8h-10.2v34.9h7.7l14.9-17.5v17.5h10.2V13.8h-7.7zM196.8 27l-8.4-13.2h-10.1v34.9h10.1v-18l7.8 12.1h1.2l7.8-12.1v18h10.1V13.8h-10.1zM101.9 23.8h10.5v24.9h10.5V23.8h10.4v-10h-31.4zM264.2 48.7h10.4V23.8h14v-10h-24.4zM354.5 13.8v12.5h-11.8V13.8h-10.5v34.9h10.5V36.1h11.8v12.6H365V13.8zM308.5 12.8c-11 0-18.6 8-18.6 18.4 0 10.4 7.4 18.4 19.3 18.4 6.6 0 11.8-2.4 15.2-7.2l-8.4-4.8c-1.4 1.5-3.8 2.7-6.7 2.7-3.8 0-7.1-1.3-8.4-4.9h24.8c.3-1.3.4-2.7.4-4.2.2-10.5-7.4-18.4-17.6-18.4zm-7.6 14.8c1-3.6 3.6-5.5 7.6-5.5 3.1 0 6.3 1.5 7.4 5.5h-15zM239.7 12.8c-10.3 0-18.5 8-18.5 18.4 0 10.4 8.2 18.4 18.5 18.4s18.5-8 18.5-18.4c0-10.4-8.2-18.4-18.5-18.4zm0 26.7c-4.5 0-8-3.3-8-8.2s3.5-8.2 8-8.2 8 3.3 8 8.2-3.4 8.2-8 8.2z"/>
									<radialGradient id="SVGID_1_" cx="-383.822" cy="1460.353" r="37.183" gradientTransform="matrix(1 0 0 -1 426.579 1495.623)" gradientUnits="userSpaceOnUse">
										<stop offset="0" stop-color="#ec1c24"/>
										<stop offset="1" stop-color="#be1e2d"/>
									</radialGradient>
									<path d="M42.7 76.1c-.6-.3-15.1-8-25.8-24.3C7.4 37.5 5.2 19.3 5.1 18.4l-.1-.6 8-12.9h60.5l8.1 12.9-.1.6c-.1.8-2.1 17-11 31.7-11.4 18.8-25.7 25.8-26.3 26l-.8.4-.7-.4z" fill="url(#SVGID_1_)"/>
									<linearGradient id="SVGID_2_" gradientUnits="userSpaceOnUse" x1="24.447" y1="8.059" x2="62.741" y2="46.353">
										<stop offset="0" stop-color="#a8abad"/>
										<stop offset=".486" stop-color="#fff"/>
										<stop offset="1" stop-color="#c1c3c5"/>
									</linearGradient>
										<path d="M60.8 24.6l7.6 9.8c1.8-5.4 3.4-10.8 4-14.2l-4.2-6.6H18.8L14.7 20c.6 3.4 1.6 8.9 3.5 14.7l7.5-10h12L34 55.4c2.5 3.4 7.1 7.2 9.5 8.8 3.1-2.1 7.6-5.8 9.8-8.9-.6-7-3.9-30.7-3.9-30.7h11.4z" fill="url(#SVGID_2_)"/>
									<linearGradient id="SVGID_3_" gradientUnits="userSpaceOnUse" x1="13.298" y1="57.311" x2="73.46" y2="-2.851">
											<stop offset="0" stop-color="#7a7c7f"/>
											<stop offset=".488" stop-color="#dbdcdd"/>
											<stop offset="1" stop-color="#87898b"/>
									</linearGradient>
									<path d="M76.3 0h-66L0 16.6l.2 2.3c0 .2 2.3 20.1 12.5 35.6 11.4 17.3 27 25.6 27.6 25.9l3 1.6 3-1.4c.7-.3 16.3-7.9 28.4-27.9C84.3 36.8 86.3 19.2 86.3 19l.2-2.3L76.3 0zm3.5 18.2s-2 16.5-10.7 30.9C57.8 67.7 43.5 74.4 43.5 74.4S29 66.8 18.4 50.8C9.1 36.7 6.9 18.2 6.9 18.2L14 6.7h58.5l7.3 11.5z" fill="url(#SVGID_3_)"/>
									<g>
										<path class="st4" d="M129.4 53.1c-.4-.4-.9-.8-1.3-1-.2-.2-.6-.3-1.1-.3-1 0-1.8.7-2 1.7-.1.4-.1.7 0 1.1v.1l-1.2 4.1-.7 2.5c-.1.2-.2.6-.4 1.3v.1l-.3 1.1c-.1.5-.3.9-.4 1.5l-.5 1.5-.2.6c-.2.6-.3 1-.4 1.1-.1.2-.2.5-.3.9-.1.3-.1.5-.2.6-.3.8-.7 2-1.3 3.6-.1.2-.2.5-.3.9 0 .2-.1.3-.1.5-.2.4-.4.8-.5 1.4-.3.9-.4 1.2-.4 1.4-.3.7-.5 1.4-.6 2-.2.6-.3.8-.3.8-.2.3-.4.7-.4 1.1l-.1.1c-.2.4-.4.8-.4 1.3-.4.5-.6 1-.6 1.4 0 .1-.1.2-.1.3-.1.3-.2.6-.3.8l-.3.8c0 .1-.1.2-.1.3-.2.3-.3.6-.3.9-.2.3-.5.7-.5 1.3v.2c-.1.4 0 .8.2 1.2-.5.2-.8.6-1 1.1l-.3 1.1c0 .2-.1.3-.1.5 0 .3.1.5.2.8 0 .3 0 .5.1.8-.4.2-.6.5-.8.9-.2.4-.2.8-.1 1.2-.3.5-.4 1-.2 1.5v.4l-.1.1c-.2.4-.2.9 0 1.3-.1.3-.2.7-.1 1-.3.3-.4.7-.4 1.1l-.1 1.3v.4c-.1.2-.1.4-.1.6v.9c0 .3.1.5.2.8-.2.5-.2 1-.1 1.6-.1.4-.1.8.1 1.2v.7c0 .4.1.7.1.9v.4c0 .3.1.7.2 1 0 .4.1.9.2 1.4.1.4.1.7.2.9.1.6.3 1.1.5 1.5.1.4.2.9.4 1.3l.2.4c0 .1 0 .1.1.1.4.9 1 1.7 1.6 2.5l.1.1c.7.6 1.4 1 2.1 1.1h.4c.5 0 .9-.2 1.3-.5h.1c.3-.2.5-.5.7-.8.1-.3.3-.8-.1-1.5-.1-.2-.2-.3-.3-.4-.4-.4-.8-.6-1.3-.6h-.5c-.1-.2-.2-.3-.2-.4v-.3c-.1-.4-.3-.8-.5-1-.1-.3-.1-.8-.3-1.3l-.2-1.1c0-.2-.1-.5-.2-.7 0-.2 0-.5-.1-.7l-.1-1.6v-.2-.2-.6c0-.2 0-.6-.2-1v-.6-.3-2-.7c.1-.2.1-.5.1-.7l.1-2.4v-.1c.1-.4.1-.8.2-1.2v-.6c0-.2 0-.4.1-.6l.8-3.8c.1-.5.1-.7.2-.8.1-.2.2-.5.4-1s.3-1 .3-1.5v-.1c.3-.7.4-1.3.5-1.8.2-.5.4-1.1.6-1.7l.4-1.2c.1-.4.3-.9.5-1.5.2-.5.3-.9.5-1.2v-.1c.3-1 .9-2.6 1.6-4.6.2-.4.3-.9.4-1.3l.2-.6.2-.5c.1-.3.2-.7.3-1 .1-.3.2-.5.3-.7v-.1c.1-.3.4-1.1.7-2.3l1.4-3.8 1.4-4.2 1.4-3.9c.9-2.5 1.5-4.4 1.8-5.7.1-.5.2-.8.2-1.1v-.2c0-.5-.2-1-.5-1.5 0 .3 0 .2-.1.2zm-13.3 38.7z"/>
										<path class="st4" d="M156.9 52.9c0-1-.2-1.9-.6-2.7-.6-1-1.1-1.7-1.7-2.1-.1-.1-.3-.2-.6-.6-.4-.3-.7-.6-1.1-.8-.1-.1-.3-.2-.5-.3-.3-.1-.6-.2-.9-.2-.1-.2-.3-.3-.5-.4-.2-.1-.4-.2-.5-.2-.3-.3-.7-.4-1.1-.4h-.4-.1c-.3-.3-.7-.4-.9-.4h-.8c-.4-.2-.9-.4-1.3-.4-.2 0-.4 0-.5.1-.2-.1-.4-.1-.5-.1-.7-.3-1.6-.4-2.5-.4h-1.8c-.2 0-.4-.1-.6-.1h-.3-1.5c-.5 0-.8 0-1.1.1-.1 0-.1 0-.2.1h-.5c-.2-.1-.5-.1-.7-.1-.4 0-.9 0-1.4.1-.4.1-.8.1-1.1.2h-.1c-.5.1-.7.1-.8.1-1 0-1.9.1-2.7.4-.1 0-.2.1-.4.1h-.2-.1c-.3 0-.6.1-.8.2h-.3c-.4 0-.8.1-1.2.2l-.4.1-.3.1-2.2.4-.3.1c-.9.2-1.4.3-1.8.4l-1 .2c-.9.2-2 .5-3.2.8l-1.4.4-4.3 1.2-.6.2-4.5 1.3c-.6.1-1.1.4-1.5.8-.2.2-.3.5-.3.7l-1.1.1h-1.2c-.2-.1-.5-.2-.8-.2-.2 0-.4 0-.6.1h-.3c-.2 0-.7 0-1.7-.2H99s-.2 0-.5-.2c0-.3.1-.7.3-1.1 0-.1.1-.1.1-.2l.3-1v-.2c.2-1-.3-1.6-.6-1.9-.4-.4-.8-.6-1.3-.6-.7 0-1.3.3-1.7.9-.5.6-.8 1.1-1 1.7v.2c-.1.6-.2 1.2-.2 1.8 0 .6.1 1.2.2 1.8.4 1.7 1.5 2.9 3.3 3.5.7.2 1.5.4 2.2.4.7 0 1.2 0 1.7-.1.5 0 .9-.1 1.2-.1.9-.1 1.8-.3 2.6-.6 1.3-.3 2.2-.6 2.7-.8.3-.1.5-.2.8-.3.1 0 .2-.1.3-.1.1 0 .2 0 .3-.1.1 0 .3-.1 1.1-.4h.1s.2-.1.7-.1c.1 0 .2 0 .3-.1l3.7-1.1c.2-.1.3-.1.4-.1h.2c-.7 2-1.7 4.6-2.9 7.8l-2.6 6.1c-.3.6-.6 1.3-.9 2.1l-1.5 3.1c0 .1-.1.1-.1.2s-.1.3-.1.4c-.1.1-.1.2-.2.3l-.2.5-.4.8c-.3.7-.5 1.2-.7 1.5 0 0 0 .1-.1.1l-1.2 2.6-1.8 3.5c-.6 1.1-1 1.8-1.4 2.3 0 0 0 .1-.1.1-1.5 2.3-2.8 4.2-3.9 5.7l-.1.1c-.4.4-.6.9-.6 1.4v.1c-.4 0-.8.3-1.1.6l-.2.2c-.2.2-.3.5-.3.8l-.5.5c-.4.1-.8.3-1.1.6l-.3.3c-.9.7-1.7 1.2-2.3 1.5-.2.1-.7.3-1.7.5h-.1c-.2.1-.5.1-.9.1-.3 0-.6 0-.9-.1h-.1l-.3-.3c-.4-.4-.6-.9-.7-1.3-.1-.2-.1-.4-.2-.7-.1-.4-.2-.7-.2-.9-.5-.2-.5-.5-.5-.8v-.9c0-1.3.1-1.7.2-1.8 0-.1.1-.3.1-.4v-.4c.1-.3.2-.6.3-1.1.1-.5.2-.7.3-.9 0-.1.1-.1.1-.2.4-1.1.8-2 1.1-2.6 0 0 0-.1.1-.1l.2-.4v-.1c0-.1.1-.2.1-.2s0-.1.1-.1c.5-.9.8-1.5 1.1-1.9.2-.2.3-.4.5-.7.2-.3.4-.5.6-.8 1.1-1.5 1.8-2.2 2.2-2.5.4-.4.8-.8 1-1.3.1-.3.2-.4.2-.5.2-.4.3-1-.1-1.7-.4-.8-1.1-1.3-1.9-1.3-.4 0-.7.1-1.1.3 0 0-.1 0-.1.1l-.7.5-.1.1c-.8.7-1.5 1.3-2 1.9-.5.6-1.1 1.4-1.9 2.5-.1.2-.2.3-.3.5l-.1.2-.9 1.8c-.4.7-.7 1.3-1 1.9v.1l-1 2.1v.1c-.7 2.1-1.1 3.8-1.1 5.2v.1c-.1.3-.1.7-.1 1.3v.3c0 .2.1.6.1 1.1.1.7.2 1.2.3 1.7.2.8.4 1.4.6 1.9.2.6.5 1.2.9 1.7s.7.8 1.1 1.1c1 1 2.2 1.6 3.4 1.7.3.1.6.1 1 .1 1.6 0 3-.3 4.1-1l.1-.1c.6-.2 1.1-.5 1.8-1 1.1-.7 2.1-1.5 2.9-2.2l1.6-1.7.8-.9c.3-.3.5-.5.6-.8l.6-.6c.1-.1.1-.2.2-.2l.7-1c0-.1.1-.1.1-.2l.1-.1.1-.1c.3-.3.5-.7.5-1.1V90v-.1c0-.1.1-.1.1-.2.1-.1.1-.2.2-.3.2-.2.3-.4.4-.6.1-.3.3-.7.9-1.4.1-.1.1-.1.1-.2.2-.3.3-.5.5-.8.1-.2.3-.4.4-.6.1-.2.2-.3.2-.5.3-.3.6-.6.7-1.1V84c.2-.2.3-.4.4-.6.1-.2.2-.5.3-.7.1-.2.1-.3.2-.4.1-.2.2-.3.3-.5.4-.3.7-.8.7-1.3v-.2s0-.1.1-.1l.3-.6s0-.1.1-.1c.5-.4.8-.9.8-1.5l.6-1.2L112 74s0-.1.1-.1c.4-.3.6-.7.7-1.1.5-.4.8-1 .8-1.7v-.5c.1-.2.2-.6.6-1.4l.5-1v-.1l.5-1.2.4-.7c.1-.1.1-.2.2-.3.4-.3.7-.8.8-1.4.1-.4.1-.5.1-.7v-.2c.2-.3.3-.7.4-1.1.1-.1.3-.3.4-.5.3-.3.4-.7.4-1 .1-.2.1-.5.1-.8.1-.1.1-.2.2-.3l.2-.4c0-.1.1-.2.1-.3.2-1.1.5-1.6.6-1.8.2-.3.2-.6.3-.8 0-.1.1-.2.2-.5.1-.4.2-.7.3-1 .3-.3.5-.8.6-1.3l.2-.5c.2-.4.4-.9.5-1.5.1-.3.2-.4.2-.5.1 0 .3 0 .4-.1-.2.1-.3.1-.3.1h.4l.8-.2h.2c.2-.1.5-.1.8-.2.3-.1.6-.2 1-.2l2.2-.4h.1l1.2-.3c.8-.2 1.2-.2 1.4-.3 1.2-.2 2.2-.3 2.9-.4.2 0 .6-.1 1.2-.2.3-.1.6-.1.9-.1h.7c.4 0 .7 0 1-.1.3 0 .6-.1.8-.1h.5c.6 0 1 0 1.4-.1l1.7-.1 1.4.1c.6.1 1.1.1 1.6.1 1 .1 1.8.1 2.2.2 1 .1 2.2.4 3.4.8.8.2 1.7.7 2.9 1.4.1 0 .4.2 1 1.1-.5.3-.8.9-.8 1.5 0 .3.1.7.3 1.1 0 0 0 .1.1.1.1.8.7 1.5 1.6 1.7h.4c.8 0 1.5-.4 1.9-1 .5-.8.8-1.6.8-2.4-.6.1-.6-.2-.6-.4z"/>
										<path class="st4" d="M144.4 76.5v-.2-.3-.1c.2-.5.2-1.1.2-1.8v-.7c.1-.2.1-.5.1-.8V72v-.3c.1-.3.1-.7.1-.8 0-.3 0-.5-.1-.7v-.3c0-.4-.1-.7-.3-1-.1-.2-.1-.3-.2-.5-.1-.3-.3-.5-.5-.7-.2-.3-.4-.5-.7-.8l-.1-.1-.3-.3c-.1-.1-.3-.3-.5-.3-.2-.2-.5-.4-.9-.4l-.1-.1c-.1 0-.2-.1-.2-.1l-.5-.2c-.2-.1-.4-.1-.6-.1h-.7c-.4 0-.7.1-1 .3h-.2c-.9.2-1.4.4-1.7.6-.1 0-.2.1-.3.1l-.2.1c-.1 0-.2.1-.3.2l-.3.2c-.1 0-.1.1-.2.1-.2.1-.4.3-.5.4l-.1.1c-.2.1-.3.2-.4.4-.2.1-.4.3-.5.5-.1.1-.2.1-.2.2l-.1.1c-.2.1-.3.2-.4.3-.1.1-.2.2-.3.4 0 .1-.1.1-.1.2-.2.1-.3.3-.5.5l-.4.4-.1.1c-.5.5-.9 1-1.2 1.3-.4.2-.6.5-.8.9-.1.1-.2.3-.3.5l-.1.1c-.1.1-.2.3-.3.4-.2.2-.3.4-.4.7-.2.2-.3.4-.5.7l-.1.1c-.2.3-.4.5-.5.8-.1.1-.2.3-.2.4-.1.2-.2.4-.4.7-.2.4-.4.9-.6 1.4-.1.1-.1.3-.2.4-.1.1-.1.2-.2.4s-.1.4-.2.5c-.2.5-.4.9-.5 1.2-.1.2-.2.4-.2.6v.1c0 .2-.1.4-.1.6v.1c0 .2-.1.6-.3 1.2-.3 1-.6 2.3-.8 3.7v.7c0 .3-.1.7-.1 1 0 .3-.1.6-.1 1v1.8c0 .7 0 1.2.2 1.6 0 .3.1.7.3 1 0 .2.1.5.2.7.1 1 .3 1.6.6 2.1 0 .2.1.3.1.5 0 .1.1.1.1.3 0 0 0 .1.1.1v.1c0 .2.1.4.2.6.1.1.1.2.2.3.1.1.1.2.2.3.1.2.2.4.3.5.2.3.4.6.6.7.4.4.7.6 1 .7l.1.1c.3.2.5.3.7.4.3.1.8.2 1.3.2h.9c.4 0 .8-.1 1-.3h.1c.4-.1.7-.4 1.2-.7.1 0 .1-.1.2-.2l.6-.6c.4-.2.6-.5.8-.8l.2-.2c.2-.2.3-.4.5-.6.1-.1.2-.1.3-.2.5-.3.7-.7.8-1 .2-.2.3-.4.5-.8.1-.1.1-.3.1-.4.1-.1.2-.3.2-.4.1-.1.1-.2.1-.3.1-.1.2-.2.3-.4.1-.2.2-.3.3-.5.6-.7.9-1 .9-1.5 0 0 0-.1.1-.1.1-.2.2-.4.3-.5.2-.2.4-.5.4-.7 0-.1.1-.1.1-.2.1-.1.2-.3.3-.5.2-.2.3-.4.5-.7 0-.1 0-.1.1-.2s.2-.3.3-.4c.1-.1.1-.3.2-.4v-.1l.1-.1.3-.6c.1-.2.3-.5.3-.8 0-.1.1-.2.2-.4 0-.1.1-.3.2-.5.1-.1.1-.2.1-.3 0-.1.1-.1.1-.2v-.1c.3-.4.4-.8.4-1.1 0-.1.1-.2.1-.3.1-.3.2-.6.2-1 .2-.2.3-.4.4-.7.2-.3.3-.6.3-.9 0-.3-.1-.5-.2-.8.1-.2.1-.4.1-.5v-.3c.2-.2.3-.4.3-.6.1-.2.2-.5.2-.8v-.1c.4-.3.7-.8.7-1.3v-.1c.5-.6.3-1.1-.1-1.3zm-10.5 13c-.2.2-.3.4-.4.6-.1.1-.2.2-.3.4l-.3.3c-.1.1-.2.1-.3.2-.3.2-.5.5-.6.7-.1.1-.1.2-.2.4-.2.2-.4.4-.5.7l-.3.3-.1.1-.3.3-.5.5-.6.6c-.1.1-.1.2-.2.2-.1.1-.2.2-.3.4-.1.1-.2.2-.3.4h-.1c0-.1 0-.1-.1-.2 0-.1-.1-.2-.2-.4 0-.3 0-.5-.1-.8v-.1-.4-.3-.6-.3-.3c.1-.2.1-.4.1-.6v-.4-.3-.2c0-.2.1-.3.1-.5v-.1c.1-.1.1-.2.1-.4.1-.3 0-.6 0-.9v-.1c.1-.3.2-.7.2-1.2 0-.1 0-.1.1-.2.1-.2.2-.5.2-.7.1-.2.2-.5.2-.7 0-.1.1-.3.1-.4v-.3c.1-.2.1-.3.1-.5.4-.4.6-.8.6-1.1.1-.1.1-.2.2-.3 0-.1.1-.2.1-.3.1-.2.2-.5.2-.7v-.1l.6-.9c.2-.4.3-.9.2-1.3v-.2c.2-.2.4-.5.5-.9.3-.3.6-.6.7-1 .1-.2.2-.3.2-.5.1-.1.1-.2.1-.2.1-.2.3-.4.5-.6 0 0 0-.1.1-.1l.3-.3.1-.1c.1-.1.2-.2.3-.4.3-.2.5-.5.6-.7.1-.1.3-.3.4-.6l.1-.1.1-.1.1-.1c.3-.2.5-.4.7-.7l.3-.3c.2-.1.3-.3.5-.5.2 0 .3-.1.5-.2.4-.2.8-.6.9-1l.6-.3.3-.3c.1.1.2.3.3.4.1.1.3.2.5.3 0 .7 0 .9-.1 1V73.7l-.1.6v.1c-.1.2-.1.3-.1.5 0 .1-.1.2-.1.3-.1.3-.1.5-.1.7-.1.2-.1.4-.1.7-.1.2-.2.5-.2.7 0 .1 0 .2-.1.3l-.1.4c-.2.2-.2.5-.2.8 0 .1 0 .2-.1.4s-.2.5-.2.7c0 .2 0 .4.1.6-.5.3-.8.8-.8 1.4v.2c0 .2 0 .3.1.5v.1c-.1.3-.2.5-.3.7l-.3.6c-.2.2-.3.4-.4.6-.1.2-.2.3-.3.5-.5.2-1.1.6-1.2 1.4-.2.2-.4.5-.5.8 0 .1-.1.1-.1.2-.1.1-.2.3-.3.4-.1.2-.3.4-.3.6-.1 0-.1.1-.2.2.2.2 0 .5-.1.8zM185.5 111.4c0-.2 0-.5-.1-.7-.1-.3-.2-.5-.4-.7 0-.1 0-.1-.1-.2 0-.2-.1-.4-.2-.5 0-.1-.1-.3-.2-.4 0-.4-.2-.7-.5-1.1 0-.2-.1-.3-.2-.4 0-.1-.1-.3-.2-.4 0-.2-.1-.5-.2-.7v-.1c0-.1-.1-.2-.1-.3v-.1c0-.2-.1-.5-.1-.6v-.3c0-.3-.1-.5-.2-.8v-.1c0-.2-.1-.5-.2-.7v-.8c0-.2 0-.4-.1-.6V99.7c0-.2 0-.6-.1-1.1 0-.4-.1-.9-.1-1.3V96v-.5-1.7-.3-.7-.2-.8-.6c.1-.2.1-.4.1-.5v-1.9c.1-.2.1-.4.1-.7 0-.2 0-.4-.1-.6.1-.2.1-.5.1-.8v-1c.1-.2.1-.3.1-.5 0-.1.1-.3.1-.5v-.4c0-.2.1-.5.1-.9.1-.2.1-.4.1-.6v-1.2l.1-1v-.1c0-.6 0-1.1.1-1.6v-1c0-.1.1-.2.1-.3.1-.2.2-.4.2-.7v-.3l.1-.6v-.2c.1-.3.1-.6.1-1v-.6-.3l.1-1V72c0-.1 0-.3-.1-.4v-.2c0-.6-.3-1.2-.8-1.6-.2-.2-.4-.3-.6-.4-.2-.1-.5-.2-.9-.3-.1 0-.3-.1-.4-.1h-.4-.1c-.3-.2-.5-.3-.7-.3h-.2c-.1 0-.3-.1-.4-.1-.3 0-.8.1-1.3.5-.1.1-.2.3-.3.4 0 0 0 .1-.1.1-.1.1-.2.3-.2.4 0 0 0 .1-.1.1-.1.1-.2.3-.3.4-.2.2-.4.4-.5.7-.1.1-.2.3-.2.4l-.1.1c-.2.2-.4.5-.5.8-.1.1-.1.2-.2.3 0 .1-.1.2-.1.2-.1.1-.2.3-.3.4-.2.2-.3.4-.4.6 0 .1-.1.2-.1.3 0 .1-.1.1-.1.2-.2.2-.4.6-.4.9-.2.2-.4.4-.5.6-.2.2-.3.5-.3.8 0 .1-.1.1-.1.2v.1c0 .1-.1.1-.1.2-.2.2-.3.5-.4.8-.1.1-.1.2-.2.3l-.1.2-.1.2c-.1.3-.2.5-.3.7 0 .1 0 .1-.1.2 0 .1-.1.1-.1.1-.1.1-.2.2-.2.3-.1.1-.2.2-.2.3-.1.1-.2.3-.3.5 0 .1 0 .1-.1.2s-.1.2-.1.2l-.3.6c0 .1-.1.2-.1.2-.1.2-.2.3-.3.5 0 .1-.1.2-.1.2-.1.2-.2.3-.3.5-.2.2-.3.4-.3.7l-.1.1c-.1.1-.2.2-.2.3 0 0 0 .1-.1.1 0 .1-.1.1-.1.2-.1.1-.2.3-.4.6-.1.1-.2.3-.2.5-.1.2-.3.4-.3.6 0 .1-.1.1-.1.2-.1.1-.2.2-.2.3-.2.2-.4.4-.5.7-.1.2-.1.3-.1.4-.1.1-.2.2-.2.3-.2.2-.4.4-.5.7l-.1.1-.1.1c0-.2-.1-.5-.2-.7v-.3-1.5c0-.2 0-.4-.1-.6V86c0-.4 0-.8-.1-1.1v-5.7c0-.2 0-.3-.1-.5s-.1-.5-.1-.7v-.2-.5c0-.1 0-.3-.1-.4v-.4-1.1-.7c0-.2 0-.4-.1-.6V74l-.1-1.7c0-.2-.1-.5-.2-.7v-.4c0-.2 0-.4-.1-.6 0-.3-.1-.6-.1-.9-.1-.4-.1-.6-.2-.8 0 0 0-.1-.1-.1 0-.2 0-.3-.1-.5-.1-.3-.2-.6-.3-.8 0-.1 0-.2-.1-.3 0-.3-.1-.6-.3-.9 0-.2-.1-.5-.2-.7-.1-.3-.2-.5-.4-.7 0 0 0-.1-.1-.1-.1-.3-.2-.5-.4-.7-.2-.4-.5-.7-.9-1.1-.4-.4-.8-.7-1.2-.9-.1-.1-.2-.2-.4-.2-.1 0-.2-.1-.4-.2l-.8-.4c-.2-.1-.3-.1-.5-.1h-.2c-.6-.3-1.1-.5-1.5-.5-.2-.1-.5-.2-.8-.2h-.1c-.2 0-.5.1-.7.2-.4.2-.7.5-.8.8-.2.4-.2.8-.1 1.2 0 .3.1.6.3.8.1.2.3.4.4.6.2.2.4.3.6.4.1.1.2.1.3.2l.2.1c.1.1.2.1.4.1.1.1.3.2.4.2.1.1.3.1.4.1 0 0 .1 0 .1.1.1.1.2.2.3.2.1.2.2.3.4.4 0 .1.1.2.2.4v.2c0 .1 0 .3.1.4v.1c-.1.2-.1.3-.1.5 0 .1-.1.2-.1.3 0 .1-.1.2-.1.3-.1.2-.1.4-.1.5 0 .1 0 .1-.1.2 0 .1-.1.2-.1.2 0 .1-.1.2-.1.2-.2.3-.3.6-.3 1-.1.1-.1.3-.1.4-.1.1-.2.3-.2.4-.1.2-.1.4-.2.6-.2.2-.3.5-.3.7-.1.1-.1.3-.2.4v.1c-.1.2-.2.4-.2.6v.1c-.1.2-.2.4-.3.7v.1c0 .1-.1.1-.1.2-.1.2-.2.4-.3.7 0 .1-.1.1-.1.2-.1.1-.1.2-.2.3 0 .1-.1.2-.1.3-.1.1-.1.3-.2.4-.1.2-.2.3-.2.5-.1.2-.2.5-.2.8 0 .1-.1.2-.1.2 0 .1-.1.2-.1.4 0 .1-.1.1-.1.2s-.1.2-.1.3c-.1.2-.2.4-.2.6-.1.2-.1.3-.2.5-.1.1-.1.2-.2.4s-.1.4-.2.6c-.1.2-.1.3-.1.4 0 .1-.1.1-.1.2l-.1.2c0 .1-.1.3-.2.5l-.3.6c-.4.8-.5 1.1-.6 1.3l-.3.6c0 .1-.1.1-.1.2-.1.1-.1.2-.2.3-.1.3-.2.5-.2.7 0 0 0 .1-.1.1-.1.1-.2.2-.2.3l-.3.6-.4.8-.4.6c0 .1-.1.2-.1.2l-.1.3c-.2.2-.3.4-.4.6-.1.1-.3.3-.4.5v.1l-.1.2c0 .1-.1.2-.1.2-.1.1-.1.2-.2.3-.1.1-.2.2-.3.4-.1.1-.2.2-.3.4 0 0 0 .1-.1.1-.1.1-.3.3-.3.5-.2.1-.4.3-.5.6-.1.1-.2.3-.6.8-.2.2-.3.3-.3.4-.1.1-.3.2-.4.3l-.1.1-.1.1-.3.3-.1.1c-.4.4-.6.4-.6.4h-.2c-.3-.6-.6-1-.9-1.2l-.6-.3c-.2 0-.4-.1-.6-.1-.3 0-.6.1-.8.2-.3.2-.6.4-.7.7-.1.3-.2.6-.2.9v.3c0 .6.2 1.2.6 1.7v.1c.1.4.3.7.6 1.1l.7.7c.2.2.5.4 1 .5.2.2.6.3 1 .4h.9c.4 0 .9 0 1.4-.1h.3c.3 0 .6-.2.9-.4 0 0 .1 0 .1-.1.1 0 .2-.1.3-.1.2-.1.4-.2.6-.4l.1-.1c.1-.1.3-.2.4-.3l.5-.5c.3-.1.6-.4.8-.7.2-.1.4-.3.5-.6l.2-.2.1-.1.1-.1c.2-.2.4-.4.6-.7.1-.1.3-.3.4-.5.1-.1.1-.2.2-.3.2-.2.3-.4.3-.6l.2-.2c.2-.2.3-.4.4-.6.1-.1.1-.2.2-.3l.3-.6.1-.2s0-.1.1-.1c0-.1.1-.1.1-.2.1-.1.2-.2.2-.4.4-.3.6-.8.6-1.1.1-.2.2-.5.2-.7 0-.1.1-.1.1-.2s.1-.1.1-.2.1-.2.1-.2c0-.1.1-.2.1-.3.1-.2.2-.3.3-.5l.1-.1c.3-.3.5-.7.5-1.1v-.1c.1-.1.1-.2.1-.3 0-.1.1-.1.1-.2.1-.2.1-.3.2-.5l.2-.3c.2-.2.2-.5.2-.8.1-.1.1-.2.1-.4 0-.1.1-.1.1-.2s.1-.1.1-.2c.1-.3.2-.5.2-.8.3-.3.5-.7.5-1 0-.1 0-.2.1-.3v-.1c.2-.3.4-.7.4-1.1 0-.2 0-.3-.1-.5 0-.1.1-.3.1-.5v-.2c0-.4-.2-.8-.5-1.1.1-.1.3-.3.3-.5.1-.2.1-.3.1-.5v-.1c.2-.3.4-.6.4-1 0-.1 0-.3-.1-.4 0-.1.1-.2.1-.3 0-.1.1-.3.1-.4v-.1c.1-.1.2-.2.3-.2 0 .3 0 .7.2 1.1v.6c0 .2 0 .4.1.6v.4c0 .8-.1 1.1-.1 1.1 0 .1-.1.3-.1.4 0 .3.1.6.2.9-.1.2-.1.5-.1.8 0 .4.1.7.2.9v1.6c0 .2 0 .4.1.6V85.1c-.1.3-.2.7-.1 1.1 0 .1 0 .2.1.3v.1c0 .2 0 .4.1.5v.1c-.1.4 0 .8 0 .9 0 .2.1.3.1.5v1c0 .2 0 .3.1.5 0 .4 0 .7.1 1.1.1.6.3 1.1.6 1.6.1.3.3.7.6 1.1.4.6.6.9.8 1 .1.1.3.2.4.3l.2.1c.1 0 .1.1.2.2l.6.3.2.1.2.1c.2.1.4.1.6.2.2.1.5.2.7.2h.1c.2 0 .3.1.5.1s.4 0 .6-.1c.2 0 .5-.1.7-.2.2-.1.6-.2 1-.6.3-.2.6-.4.8-.7.1-.1.2-.2.2-.3.1-.1.1-.2.2-.3l.1-.1c.2-.3.4-.6.4-1v-.1c.1-.1.1-.3.2-.5.1-.1.2-.2.3-.4l.1-.1c.2-.2.3-.4.4-.7.3-.3.4-.6.5-.8 0 0 0-.1.1-.1.1-.1.2-.3.2-.5l.1-.1c.2-.2.3-.5.3-.7l.2-.2.1-.1c.1-.2.3-.3.3-.5.2-.2.3-.4.4-.7.2-.3.4-.6.4-1 0-.1.1-.1.1-.2.3-.3.4-.6.5-.8.3-.3.4-.8.4-1.1.1-.1.1-.2.2-.3.1-.1.2-.3.2-.4.3-.3.5-.7.5-1.1.1-.1.1-.2.1-.4.3-.3.5-.7.5-1.2V81v-.1c.3-.1.5-.3.6-.6.1-.1.2-.4.2-.8 0 0 0-.1.1-.1v1.4c-.1.2-.1.4-.1.7-.1.2-.1.5-.1.7V83.1c-.1.2-.2.4-.2.7 0 .1 0 .3.1.4 0 .1-.1.3-.1.4V85.6c-.1.3-.2.7-.2 1.2 0 .3 0 .5.1.7 0 .2-.1.3-.1.5V89.2c0 .2-.1.3-.1.5v.2c0 .1 0 .3.1.4v.1c0 .1-.1.3-.1.4v.6c0 .3.1.6.3.9v.6c-.3.4-.3.8-.3 1.1V94.6c0 .2 0 .4.1.6V98.3c0 .2 0 .4.1.7 0 .1.1.3.1.4 0 .2.1.3.2.5V100.2c-.1.2-.1.4-.1.7 0 .3.1.6.2.9-.1.2-.1.4-.1.6v.1c0 .5.2.9.5 1.2v.2c0 .1-.1.3-.1.4 0 .3.1.6.2.8v.1c0 .3.1.5.2.8v.4c0 .4.1.8.4 1v.5c0 .7.4 1.2 1 1.5v.4c0 .5.2 1 .6 1.3 0 .1.1.1.2.2 0 .1.1.2.2.3.1.2.2.5.5.7l.1.1.1.1c.1.1.2.2.2.3.1.1.2.2.3.4.1.2.3.4.6.6.1.1.3.3.4.3.2.2.4.3.7.4l.3.2c.3.3.7.4 1.1.4.4 0 .9-.2 1.2-.5.2-.2.3-.4.4-.6.1-.2.2-.5.2-.7.1-1.1-.3-1.7-.9-1.9zM207.3 76.5v-.2-.3-.1c.2-.5.2-1.1.2-1.8v-.7c.1-.2.1-.5.1-.8V72v-.3c.1-.3.1-.7.1-.8 0-.3 0-.5-.1-.7v-.3c0-.4-.1-.7-.3-1-.1-.2-.1-.3-.2-.5-.1-.3-.3-.5-.5-.7-.2-.3-.4-.5-.7-.8l-.1-.1-.3-.3c-.1-.1-.3-.3-.5-.3-.2-.2-.5-.4-.9-.4l-.1-.1c-.1 0-.2-.1-.2-.1l-.5-.2c-.2-.1-.4-.1-.6-.1h-.7c-.4 0-.7.1-1 .3h-.2c-.9.2-1.4.4-1.7.6-.1 0-.2.1-.3.1l-.2.1c-.1 0-.2.1-.3.2l-.3.2c-.1 0-.1.1-.2.1-.2.1-.4.3-.5.4l-.1.1c-.2.1-.3.2-.4.4-.2.1-.4.3-.5.5-.1.1-.2.1-.2.2l-.1.1c-.2.1-.3.2-.4.3-.1.1-.2.2-.3.4 0 .1-.1.1-.1.2-.2.1-.3.3-.5.5l-.4.4-.1.1c-.5.5-.9 1-1.2 1.3-.4.2-.6.5-.8.9-.1.1-.2.3-.3.5l-.1.1c-.1.1-.2.3-.3.4-.2.2-.3.4-.4.7-.2.2-.3.4-.5.7l-.1.1c-.2.3-.4.5-.5.8-.1.1-.2.3-.2.4-.1.2-.2.4-.4.7-.2.4-.4.9-.6 1.4-.1.1-.1.3-.2.4-.1.1-.1.2-.2.4s-.1.4-.2.5c-.2.5-.4.9-.5 1.2-.1.2-.2.4-.2.6v.1c0 .2-.1.4-.1.6v.1c0 .2-.1.6-.3 1.2-.3 1-.6 2.3-.8 3.7v.7c0 .3-.1.7-.1 1 0 .3-.1.6-.1 1v1.8c0 .7 0 1.2.2 1.6 0 .3.1.7.3 1 0 .2.1.5.2.7.1 1 .3 1.6.6 2.1 0 .2.1.3.1.5 0 .1.1.1.1.3 0 0 0 .1.1.1v.1c0 .2.1.4.2.6.1.1.1.2.2.3.1.1.1.2.2.3.1.2.2.4.3.5.2.3.4.6.6.7.4.4.7.6 1 .7l.1.1c.3.2.5.3.7.4.3.1.8.2 1.3.2h.9c.4 0 .8-.1 1-.3h.1c.4-.1.7-.4 1.2-.7.1 0 .1-.1.2-.2l.6-.6c.4-.2.6-.5.8-.8l.2-.2c.2-.2.3-.4.5-.6.1-.1.2-.1.3-.2.5-.3.7-.7.8-1 .2-.2.3-.4.5-.8.1-.1.1-.3.1-.4.1-.1.2-.3.2-.4.1-.1.1-.2.1-.3.1-.1.2-.2.3-.4.1-.2.2-.3.3-.5.6-.7.9-1 .9-1.5 0 0 0-.1.1-.1.1-.2.2-.4.3-.5.2-.2.4-.5.4-.7 0-.1.1-.1.1-.2.1-.1.2-.3.3-.5.2-.2.3-.4.5-.7 0-.1 0-.1.1-.2s.2-.3.3-.4c.1-.1.1-.3.2-.4v-.1l.1-.1.3-.6c.1-.2.3-.5.3-.8 0-.1.1-.2.2-.4 0-.1.1-.3.2-.5.1-.1.1-.2.1-.3 0-.1.1-.1.1-.2v-.1c.3-.4.4-.8.4-1.1 0-.1.1-.2.1-.3.1-.3.2-.6.2-1 .2-.2.3-.4.4-.7.2-.3.3-.6.3-.9 0-.3-.1-.5-.2-.8.1-.2.1-.4.1-.5v-.3c.2-.2.3-.4.3-.6.1-.2.2-.5.2-.8v-.1c.4-.3.7-.8.7-1.3v-.1c.5-.6.3-1.1-.1-1.3zm-10.6 13c-.2.2-.3.4-.4.6-.1.1-.2.2-.3.4l-.3.3c-.1.1-.2.1-.3.2-.3.2-.5.5-.6.7-.1.1-.1.2-.2.4-.2.2-.4.4-.5.7l-.3.3-.1.1-.3.3-.5.5-.6.6c-.1.1-.1.2-.2.2-.1.1-.2.2-.3.4-.1.1-.2.2-.3.4h-.1c0-.1 0-.1-.1-.2 0-.1-.1-.2-.2-.4 0-.3 0-.5-.1-.8v-.1-.4-.3-.6-.3-.3c.1-.2.1-.4.1-.6v-.4-.3-.2c0-.2.1-.3.1-.5v-.1c.1-.1.1-.2.1-.4.1-.3 0-.6 0-.9v-.1c.1-.3.2-.7.2-1.2 0-.1 0-.1.1-.2.1-.2.2-.5.2-.7.1-.2.2-.5.2-.7 0-.1.1-.3.1-.4v-.3c.1-.2.1-.3.1-.5.4-.4.6-.8.6-1.1.1-.1.1-.2.2-.3 0-.1.1-.2.1-.3.1-.2.2-.5.2-.7v-.1l.6-.9c.2-.4.3-.9.2-1.3v-.2c.2-.2.4-.5.5-.9.3-.3.6-.6.7-1 .1-.2.2-.3.2-.5.1-.1.1-.2.1-.2.1-.2.3-.4.5-.6 0 0 0-.1.1-.1l.3-.3.1-.1c.1-.1.2-.2.3-.4.3-.2.5-.5.6-.7.1-.1.3-.3.4-.6l.1-.1.1-.1.1-.1c.3-.2.5-.4.7-.7l.3-.3c.2-.1.3-.3.5-.5.2 0 .3-.1.5-.2.4-.2.8-.6.9-1l.6-.3.3-.3c.1.1.2.3.3.4.1.1.3.2.5.3 0 .7 0 .9-.1 1V73.7l-.1.6v.1c-.1.2-.1.3-.1.5 0 .1-.1.2-.1.3-.1.3-.1.5-.1.7-.1.2-.1.4-.1.7-.1.2-.2.5-.2.7 0 .1 0 .2-.1.3l-.1.4c-.2.2-.2.5-.2.8 0 .1 0 .2-.1.4s-.2.5-.2.7c0 .2 0 .4.1.6-.5.3-.8.8-.8 1.4v.2c0 .2 0 .3.1.5v.1c-.1.3-.2.5-.3.7l-.3.6c-.2.2-.3.4-.4.6-.1.2-.2.3-.3.5-.5.2-1.1.6-1.2 1.4-.2.2-.4.5-.5.8 0 .1-.1.1-.1.2-.1.1-.2.3-.3.4-.1.2-.3.4-.3.6-.1 0-.1.1-.2.2.3.2.1.5-.1.8.1 0 0 0 0 0zM228.8 71.8l-.1-.6c0-.4-.1-.8-.3-1.2-.2-.4-.4-.6-.6-.8-.1-.2-.2-.3-.4-.5l-.3-.3c-.1-.1-.2-.2-.3-.2l-.3-.2c-.1-.1-.1-.1-.2-.1-.1-.1-.3-.2-.5-.3-.3-.2-.6-.3-.9-.4-.6-.2-1.3-.3-2.1-.3h-.4c-.2 0-.3 0-.5.1H221.6c-.2-.1-.3-.1-.5-.1h-.7c-.2 0-.3.1-.5.1-.1 0-.2.1-.2.1-.1 0-.2.1-.2.1-.1 0-.2.1-.3.1-.1 0-.2.1-.3.1-.2.1-.4.1-.5.3-.2.1-.3.2-.4.3-.1.1-.3.1-.4.2-.2.1-.4.2-.6.4-.1 0-.2.1-.2.1-.2.1-.4.3-.5.4-.3.2-.6.4-.7.5-.1 0-.2.1-.2.2-.2.2-.5.4-.7.6 0 .1-.1.1-.1.2-.2.1-.4.3-.7.5l-.4.4c-.3.2-.5.5-.9.9-.2.1-.3.3-.4.5-.1.1-.1.2-.2.2-.1.1-.2.2-.3.4-.1.1-.2.2-.3.4-.1.1-.1.2-.1.2-.1.1-.1.2-.2.3l-.3.6c-.1.2-.2.4-.3.5l-.2.4-.1.1c-.1.1-.1.2-.1.4-.1.2-.2.5-.3.7-.2.2-.3.5-.4.7 0 .1-.1.2-.1.3v.3c-.1.2-.1.4-.2.6-.2.4-.2.9-.2 1.4 0 .4 0 .9.3 1.4.3.4.7.7 1.1.8.1 0 .1 0 .2.1.2.1.4.1.6.1.7 0 1.9-.4 2-2.1.1-.2.1-.3.2-.5 0-.1.1-.2.1-.3 0-.1.1-.2.1-.2l.1-.4.2-.3v-.1l.2-.3c.1-.1.1-.3.1-.4 0-.1.1-.2.1-.3l.1-.3v-.2c.1-.1.2-.3.3-.5.1-.1.2-.3.3-.5l.1-.2.3-.3c.1-.1.1-.2.1-.2l.1-.1c.4-.2.7-.6.8-1 .2-.1.3-.2.4-.3l.1-.1.1-.1c.1-.1.2-.1.3-.2l.1-.1c.1 0 .1-.1.2-.1.6-.1 1.1-.5 1.5-.9.2-.1.3-.2.4-.3.2-.1.4-.2.5-.3l.1-.1c.2-.1.4-.2.7-.4.1-.1.2-.1.2-.2.1 0 .1 0 .2-.1.1 0 .1-.1.2-.1s.1-.1.2-.1c.2-.1.3-.1.5-.2h.4c.2 0 .3 0 .5-.1.1 0 .2 0 .3-.1h.7c0 .1 0 .3-.1.5 0 .1-.1.2-.1.3-.2.5-.4 1.1-.5 1.7-.1.3-.2.5-.3.9l-.3.9c-.1.2-.1.4-.2.6 0 .1-.1.1-.1.2s-.1.3-.3.6c0 .1-.1.1-.1.2-.1.2-.2.3-.2.5-.2.2-.3.5-.4.7 0 0 0 .1-.1.1 0 0 0 .1-.1.1-.1.1-.2.3-.3.4-.1.1-.2.3-.3.5l-.3.3c-.1.1-.2.3-.2.4-.1.1-.2.3-.3.4-.1.1-.2.2-.2.3-.2.3-.3.6-.3.9-.2.1-.4.3-.6.5l-.2.2c0 .1-.1.1-.1.2-.1.1-.2.2-.2.4-.2.2-.4.4-.5.7-.1.1-.2.3-.3.5l-.3.3c-.1.2-.2.5-.3.8-.2.1-.4.3-.5.5l-.2.2-.1.1c-.2.2-.3.4-.4.7 0 .1-.1.1-.2.2 0 .1-.1.1-.1.2-.1.2-.3.3-.3.6-.1.1-.1.2-.1.2 0 .1-.1.2-.1.3 0 .1-.1.1-.1.2s-.1.2-.1.3c-.1.1-.1.2-.1.2-.1.2-.2.3-.3.5v.1c-.2.2-.3.4-.3.7-.1.1-.2.3-.3.5-.2.2-.3.4-.3.7 0 .1-.1.1-.1.2-.1.1-.1.3-.2.4v.1c-.1.2-.2.4-.2.6-.1.1-.1.3-.2.4-.1.4-.2.7-.3 1-.1.2-.2.5-.2.7 0 .1-.1.2-.1.3 0 .1-.1.2-.1.3-.1.5-.1 1-.1 1.4 0 .5.1 1.2.3 2.3v.1c.1.3.2.6.2.9.1.4.2.7.3 1 .1.1.1.2.2.3v.2c.1.4.2.7.5.9l.3.3c0 .1.1.1.1.2l.3.3c.1.1.2.2.3.2.1.1.2.2.3.2l.2.2c.1.2.4.4.6.6.4.2.9.3 1.5.3.2 0 .4 0 .7-.1h.1c.2 0 .4 0 .6-.1.4-.1.9-.4 1.4-1 0-.1.1-.1.1-.2.1-.3.5-.9.2-1.6-.2-.7-.8-1.3-1.6-1.3-.2 0-.3 0-.6.1h-.3c-.1 0-.2 0-.3.1h-.4c0-.1-.1-.1-.1-.2s0-.3-.1-.4v-.5c0-.2-.1-.3-.1-.4v-.4-.4c0-.1.1-.3.1-.4v-.1-.2c.1-.4.2-.7.2-.9v-.1c.1-.2.2-.4.2-.6 0-.1.1-.1.1-.2.1-.1.1-.3.2-.5s.2-.4.2-.6v-.1c.2-.2.4-.6.5-.9.1-.1.1-.1.1-.2.2-.2.4-.5.4-.9.2-.4.3-.6.4-.9 0-.1.1-.1.1-.2l.1-.2.1-.2c.1-.1.1-.2.2-.4.1-.3.2-.4.2-.4.1-.1.3-.3.3-.5l.1-.1c.2-.2.3-.4.4-.7l.1-.1c.1-.1.1-.2.2-.3.1-.1.1-.3.2-.4v-.1c.3-.3.6-.6.9-1.1.1-.1.1-.2.2-.3l.2-.4c.1-.1.2-.3.2-.4.1-.1.2-.3.3-.4.2-.2.4-.4.5-.7.1-.1.2-.3.3-.5l.1-.1.1-.1c.1-.1.2-.3.3-.4.2-.2.3-.4.4-.7.2-.2.4-.4.5-.6 0 0 .1-.1.1-.2.1-.1.2-.3.3-.4.1-.1.1-.2.2-.3.1-.1.1-.2.1-.3l.2-.2c.2-.2.3-.4.3-.7.1-.1.1-.2.2-.2.2-.2.3-.4.4-.6.1-.1.1-.3.1-.5 0 0 0-.1.1-.1.1-.3.2-.6.2-.9v-.1c.2-.2.3-.5.3-.8.1-.3.2-.5.2-.8 0-.1.1-.2.1-.4.1-.2.2-.4.2-.6.1-.1.1-.3.1-.4 0-.1 0-.2.1-.3v-.1c0-.1.1-.2.1-.3l.2-1 .1-.5V72c.4-.1.4-.1.4-.2zM256 72.1v-.2c-.1-.4-.5-1-1.4-1.2-.2-.2-.5-.3-.8-.4-.3-.3-.7-.4-1.1-.4h-.4c-.5 0-1 .3-1.4.6-.1.1-.2.3-.3.4l-.1.1v.1l-.1.1s0 .1-.1.1c-.2-.2-.5-.5-.9-.7-.3-.2-.5-.3-.8-.4l-.3-.1c-.1 0-.1-.1-.2-.1-.4-.2-.8-.3-1.1-.3h-.2c-.3-.1-.6-.3-1-.3H245.2h-.1c-1 0-2 .2-3.1.7l-.7.2c-.3.1-.5.2-.7.4-.3.1-.7.4-1.3.8-.1 0-.1.1-.2.1-.2.1-.4.2-.7.4-.4.2-.8.5-1 .7l-.1.1-.1.1c-.1 0-.2.1-.2.1-.2.1-.3.2-.4.3-.1.1-.1.2-.2.2-.5.4-1.1 1.1-2 2-.1.1-.2.3-.3.5-.4.4-.7.8-.9 1.1-.1.1-.1.2-.2.3l-.3.4c-.1.1-.3.3-.4.5-.2.2-.3.5-.4.8 0 0-.1.1-.1.2l-.4.5c-.1.1-.1.2-.2.3-.1.1-.2.3-.3.6-.1.2-.2.3-.2.4-.1.1-.2.2-.2.3l-.3.6c-.1.1-.1.2-.2.3-.1.1-.1.2-.2.3-.1.1-.1.3-.2.4-.1.2-.2.4-.2.6-.1.1-.1.2-.2.3l-.3.6c0 .1-.1.1-.1.2l-.3.6-.2.4c-.2.4-.4.8-.5 1.1-.2.3-.3.6-.3.9-.1.2-.2.4-.2.6v.1c-.1.1-.1.2-.2.3-.1.3-.2.6-.2.8l-.3 1v.1l-.1.4c-.3.8-.4 1.8-.5 2.9v.1c0 .6 0 1.2.1 1.8.1.6.1 1 .1 1.1 0 .3.1.8.4 1.4v.1c.1.3.2.6.4.8.1.2.3.5.5.7.3.4.6.6.8.8.1.1.2.1.4.2h.1c.5.3 1.1.4 1.8.4.2 0 .3 0 .5-.1h.1c.2 0 .4 0 .6-.1l.2-.1c.4 0 .8-.2 1.1-.5.2-.1.3-.3.5-.4l.1-.1c.3-.2.6-.5.7-.9-.1.4-.4.7-.6.8 0 0 .1-.1.2-.1s.1-.1.2-.1c.2-.1.4-.3.7-.6.1-.1.3-.3.5-.4l.2-.2.7-.7c.1-.1.3-.3.4-.6.4-.2.6-.5.7-.7.1-.1.1-.2.1-.2l.1-.2c0-.1.1-.1.1-.2.3-.2.4-.5.6-.8.2-.2.4-.3.5-.5.3-.2.4-.5.5-.8 0-.1.1-.1.1-.2l.1-.1.2-.2c.1-.1.2-.2.2-.3.1-.1.2-.2.2-.4l.1-.1c.1-.1.2-.2.3-.4.1-.1.1-.2.2-.3.4-.2.6-.6.6-.7V91l.3-.3c.3-.2.5-.5.5-.9v.1c-.2.6-.2.8-.3.9v.1c-.3.9-.6 2.1-.9 3.6-.3 1.3-.4 2.2-.5 2.8-.1.6-.1 1.4 0 2.4l.1 1.5c0 .2 0 .4.1.5V102.3l.3 1.1c0 .3.1.5.1.7 0 .3.1.5.2.9s.3.7.4 1.1l.3.9.1.1c.1.2.2.3.3.5.1.1.1.3.3.4.1.2.2.3.3.4.1.3.3.5.5.7l.2.2c0 .1.1.1.1.2l.1.1c.1.1.3.2.4.3l.2.2c.3.3.8.5 1.3.5h.2c.7 0 1.4-.5 1.5-1.2.2-.7-.1-1.3-.7-1.7-.1-.2-.4-.4-.6-.6l-.2-.2c0-.1-.1-.1-.1-.1v-.1c-.1-.2-.2-.4-.4-.6 0 0 0-.1-.1-.1 0-.1 0-.1-.1-.1.1-.2.1-.5 0-.7.2-.3.2-.5.2-.9v-.1V103.9v-.4c0-.2 0-.3-.1-.5v-.3-1-.4-.5-.1c.1-.2.1-.5.1-.9v-.7-.2-.1l.1-.2c0-.1.1-.2.1-.4.1-.2.1-.3.2-.5.1-.3.2-.7.2-.9l.1-.4c.1-.3.2-.6.2-.8l.1-.4c0-.1.1-.3.1-.4 0-.1.1-.1.1-.2l.2-.5c0-.1.1-.2.1-.3 0-.1.1-.2.1-.3 0-.1 0-.1.1-.2.1-.2.1-.3.1-.5.2-.3.3-.6.3-1 .1-.2.2-.4.2-.6.1-.1.1-.2.2-.3 0-.1.1-.3.1-.5l.1-.1c.2-.3.3-.6.3-.9.1-.1.1-.3.2-.4 0-.1 0-.1.1-.2.1-.2.2-.3.2-.5V88c0-.1.1-.2.1-.3.1-.2.2-.3.2-.4l.1-.1c.1-.2.2-.4.2-.6 0-.1.1-.2.1-.3 0-.1.1-.3.1-.4.1-.1.1-.2.1-.2l.2-.4c.1-.2.2-.3.3-.5l.2-.5c.1-.2.2-.3.3-.5.1-.1.1-.3.2-.4l.3-.6c0-.1.1-.2.1-.3.1-.1.2-.3.2-.5.1-.1.1-.2.1-.3.1-.2.2-.3.3-.4v-.1c.2-.2.3-.5.4-.7l.2-.4c.1-.1.1-.2.2-.3.1-.1.2-.3.3-.4.1-.1.1-.2.2-.3.1-.2.1-.3.2-.5 0 0 0-.1.1-.1.2-.3.4-.6.5-.9.1-.1.2-.3.2-.4l.2-.3s0-.1.1-.1c.2-.2.3-.5.4-.8 0-.1.1-.1.1-.2.1-.2.2-.4.3-.5.2-.4.3-.6.3-.9.2-.4.3-.8.3-1.3.1-.5.1-.7 0-1zm-25.2 22.8l.1-.5c.1-.3.2-.6.1-.9v-.1c.2-.4.3-.8.5-1.4.1-.3.2-.5.2-.8v-.1c0-.1.1-.2.1-.3.1-.1.1-.2.2-.3v-.1c.1-.2.2-.3.2-.5.2-.3.3-.6.4-.9.1-.2.2-.4.2-.7 0-.1 0-.1.1-.2.1-.2.3-.3.4-.5l.3-.6c.2-.2.3-.5.3-.7.1-.1.1-.2.2-.2l.2-.3.2-.3c.1-.2.2-.3.2-.5.3-.3.5-.6.6-.9l.3-.6s0-.1.1-.1c.1-.1.2-.3.3-.4.1-.1.1-.3.2-.4v-.1l.3-.4c0-.1.1-.1.1-.2l.2-.4.4-.6.2-.2.3-.3.2-.2.4-.5c.2-.2.3-.3.4-.5l.3-.3c.1-.1.2-.3.3-.4.3-.2.6-.5.8-.8.2-.1.3-.2.4-.4l.1-.1.1-.1c.5-.5.7-.6.7-.6.1 0 .2-.1.3-.2l.2-.2c.4-.1.7-.3 1-.6.1 0 .1-.1.2-.1.3-.1.5-.2.7-.4 0 0 .1 0 .1-.1.1-.1.3-.1.4-.2l.4-.2c.2-.1.3-.2.5-.3h.1c.1 0 .3-.1.4-.1.2 0 .4-.1.5-.2h1c.1.1.3.1.4.2v.1c0 .1.1.2.1.3l-.4.5c-.2.2-.4.5-.5.7-.2.2-.3.4-.4.6 0 .1-.1.2-.3.3-.2.2-.3.3-.4.5-.2.2-.4.4-.5.6-.1.1-.2.3-.3.4-.1.1-.3.3-.4.5 0 .1-.1.1-.1.2l-.5.5c0 .1-.1.1-.1.2l-.3.3-.2.2c-.1.1-.1.2-.2.3 0 0-.1.1-.1.2 0 0 0 .1-.1.1-.1.1-.2.2-.2.3-.2.2-.4.4-.6.7l-.2.2c-.1.1-.2.2-.3.4-.2.2-.4.4-.5.6-.1.1-.1.2-.2.3-.3.3-.6.6-.7 1-.1.2-.2.3-.3.5l-.1.1c-.3.2-.6.5-.7.8l-.3.6c-.2.1-.3.3-.4.4-.1.1-.2.3-.3.4-.1.1-.1.2-.2.3-.1.1-.1.2-.2.3l-.3.3c-.2.2-.4.4-.5.6 0 .1-.1.1-.1.1-.1.1-.2.2-.3.4-.3.2-.5.5-.7.8-.1.2-.2.4-.3.5-.1.1-.2.3-.3.5l-.3.4-.5.5c-.3.3-.6.6-.7 1-.1.1-.3.2-.4.4l-.2.2-.3.3c-.1.1-.2.2-.2.3 0 0-.1.1-.1.2l-.4.3c-.1.1-.2.1-.2.2-.1.1-.3.2-.4.3-.1.1-.3.3-.6.5v-.2c-.1-.1-.1-.2-.1-.2zM277.8 70.3c0-.2 0-.4-.1-.6-.1-.4-.2-.7-.4-1 0 0 0-.1-.1-.1l-.1-.2c-.1-.2-.3-.4-.5-.6-.2-.2-.4-.4-.8-.6-.1-.1-.2-.1-.3-.2-.4-.2-.7-.2-1.8-.2-.2-.1-.5-.1-.9-.1h-.4c-.2 0-.4 0-.6.1l-.6.1c-.2 0-.4.1-.6.2-.3 0-.6.1-.9.3h-.1c-.2 0-.4.1-.5.2-.2 0-.3.1-.4.2l-.6.3-.1.1c-.2.1-.5.2-.8.4-.2.1-.3.2-.4.3-.2.1-.4.2-.4.3 0 0-.1 0-.1.1-.3.2-.5.4-.7.5v.1c-.1.1-.2.2-.4.3-.7.4-1 .6-1.2.8-.3.2-.6.5-.8.7l-.4.4-.3.3c-.1.1-.2.2-.2.3-.1.1-.2.3-.5.6-.3.4-.5.7-.7.9-.1.1-.3.2-.4.4-.1.1-.2.3-.3.4 0 0 0 .1-.1.1v.1c-.1.1-.1.2-.2.3-.1.1-.1.2-.2.4-.1.1-.2.3-.3.4-.1.1-.2.2-.2.4-.1.1-.1.2-.2.3l-.1.2c-.1.1-.1.2-.2.3-.1.1-.1.2-.1.3-.6.9-.9 1.4-1 1.8-.1.2-.3.4-.3.7l-.1.1c-.1.1-.1.2-.2.3l-.1.3c-.1.1-.2.3-.3.4l-.2.4c-.1.1-.1.3-.1.4-.1.2-.2.4-.2.7 0 .1-.1.1-.1.2l-.3 1c-.1.2-.2.4-.2.6 0 .1-.1.2-.1.3-.1.2-.2.5-.4.9 0 .1-.1.2-.1.3-.1.1-.1.3-.2.5s-.2.3-.2.5c0 .1 0 .1-.1.2-.2.3-.2.8-.2 1.2-.1.2-.1.4-.2.6-.1.2-.1.4-.1.6v.1c-.1.3-.1.6-.1.9v.8c0 2.2 0 2.8.1 3.1 0 .6.2 1.2.4 2 .2.5.4 1.2.8 1.6v.1s0 .1.1.1c0 .1.1.2.1.3.2.3.4.6.7.8.2.3.4.6.6.8l.1.1c.2.2.7.7 1.3.8.3.2.7.3 1.1.3.3 0 .6 0 .8-.1.4 0 .7-.1.9-.2h.2c.1 0 .2-.1.3-.1h.1l.3-.1c.3-.1.5-.2.7-.4.5 0 .9-.3 1.2-.5l.1-.1c.2-.1.4-.3.6-.5.1-.1.2-.3.2-.4l.4-.4c.3-.2.5-.5.7-.7.1-.1.2-.2.3-.4l.1-.1c.1-.1.2-.2.2-.3.1-.1.2-.2.3-.4l.2-.3c.1-.1.3-.3.3-.5l.3-.3c0-.1.1-.1.1-.2.1-.1.2-.3.3-.5.3-.4.5-.9.5-1.3 0-1-.7-1.7-1.7-1.7-.7 0-1.1.4-1.4.7-.2.1-.4.3-.6.5l-.1.1s-.1 0-.1.1c-.1.1-.2.2-.4.3-.2.1-.3.2-.5.4-.1 0-.1.1-.2.1-.1.1-.2.2-.3.2-.1.1-.2.1-.3.2l-.1.1c-.2.1-.3.2-.5.3-.1 0-.2.1-.3.2-.1.1-.3.1-.4.2l-.6.3h-.1c-.1 0-.2 0-.2.1-.1 0-.2.1-.3.1-.3 0-.6.1-.9.1h-1c0-.2-.1-.3-.2-.5 0-.1-.1-.1-.1-.2V95c0-.3 0-.6-.1-.9v-.2c.1-.3.1-.6.1-.9.1-.2.1-.4.1-.7v-.2-.2-.3c0-.1.1-.1.1-.2.1-.3.2-.6.2-.8.1-.2.1-.4.1-.6.1 0 .2 0 .3-.1.2 0 .3-.1.4-.2.2 0 .3-.1.5-.1.1-.1.3-.1.4-.2.1 0 .3-.1.4-.1.1 0 .3-.1.4-.2.2 0 .4-.1.6-.2.3-.1.5-.3.7-.6.1 0 .3-.1.4-.2.1-.1.3-.1.4-.2.1 0 .1-.1.2-.1.2-.1.4-.2.5-.4.4-.1.8-.4 1-.7.1 0 .1-.1.1-.1.1-.1.3-.2.4-.3.1 0 .1-.1.2-.1h.2c.6 0 1.1-.3 1.4-.7.1-.1.2-.1.3-.2.2 0 .3-.1.5-.2.1-.1.3-.1.4-.2.3-.2.5-.4.6-.7.2 0 .3-.1.5-.2s.5-.3.7-.5l.3-.3.2-.2.2-.2.1-.1.3-.3c.1 0 .1-.1.2-.1l.3-.3.1-.1.1-.1c.1-.1.3-.2.4-.3.2-.1.3-.3.4-.4.2-.2.3-.4.4-.6.6-.6 1-1.1 1.2-1.4.3-.2.5-.5.6-.8l.1-.1c.1-.2.2-.3.3-.4.1-.1.1-.3.2-.4l.2-.2c.1-.1.2-.3.3-.4v-.1l.3-.5c0-.1.1-.1.1-.2l.2-.4c.2-.3.3-.6.3-.9 0-.1.1-.2.1-.3.2-.3.2-.7.3-1 .1-.5.2-1.1.2-1.7.5-.6.5-1 .3-1.4zm-13.4 11.6c-.1.1-.2.1-.3.2l-.1.1-.1.1c-.1 0-.1.1-.2.1l-.2.2c-.5.2-.7.5-.9.7-.1 0-.2.1-.3.1-.3.1-.5.3-.6.4 0 0-.1 0-.1.1l.3-.6.1-.1c.2-.2.3-.3.4-.6 0-.1 0-.1.1-.1.2-.2.4-.5.5-.8l.1-.1c.1-.1.2-.3.3-.4l.1-.3c.2-.2.3-.4.4-.7l.1-.1c.2-.2.3-.4.4-.6.1-.2.2-.3.3-.5.1-.2.2-.3.3-.4.1 0 .1-.1.1-.1.1-.1.4-.3.6-.7l.1-.1c.3-.2.5-.5.6-.8.3-.1.5-.3.7-.6l.1-.1c.1-.1.1-.1.2-.1l.6-.5c.2-.1.4-.2.6-.4l.2-.2c.2-.2.4-.3.6-.5l.1-.1h.2c.4-.1.7-.3 1-.5.2-.1.4-.2.5-.4l.2-.2c.3-.1.6-.4.7-.5 0 0 .1 0 .1-.1.3-.1.5-.3.6-.6.2 0 .4-.1.6-.2-.1.2-.1.3-.2.6l-.6 1.2c-.1.2-.3.3-.3.5-.1.1-.1.2-.2.3-.1.1-.2.2-.3.4-.2.2-.4.5-.5.7l-.1.2-.1.2-.1.1-.5.5c-.1.1-.2.2-.2.3-.3.2-.5.5-.7.8-.1.1-.2.2-.3.4-.2.2-.4.3-.5.6-.1 0-.1.1-.2.1-.3.2-.5.4-.6.6-.2.1-.3.3-.5.5l-.4.4c-.1 0-.1.1-.2.1-.1.1-.1.1-.2.1-.1.1-.3.2-.4.3l-.1.1-.2.2c-.1 0-.1.1-.2.1-.2.1-.3.2-.4.4-.1.1-.2.1-.3.2-.5-.1-.6 0-.7.1z"/>
										<path class="st4" d="M317.3 72.9c-.1-.4-.2-.7-.4-1-.1-.3-.3-.5-.6-.7-.2-.2-.4-.3-.6-.4-.2-.3-.6-.5-.9-.6h-.1c-.1-.1-.2-.1-.3-.2-.2-.1-.3-.2-.5-.3-.2-.1-.5-.2-.7-.2h-.5H312.4c-.1 0-.3.1-.4.1h-.2c-.3 0-.6.1-.8.2-.4.1-.8.4-1 .7-.1 0-.3-.1-.5-.1s-.3 0-.5.1l-.5.2c-.1 0-.2.1-.3.2l-.3.2h-.1l-.3.1h-.1c-.5.2-.8.5-1 .8l-.3.3h-.2c-.2 0-.5.1-.7.2h-.1c-.4.2-.7.6-.8 1l-.1.1-.1.1c-.2.1-.3.2-.5.3-.1 0-.2.1-.3.1-.3 0-.7.1-.9.3-.2.1-.3.2-.5.3-.4.2-.7.7-.8 1.1-.2 0-.5.1-.7.2l-.2.1c-.2.1-.3.2-.4.3l-.3.3c-.1.2-.3.6-.4 1v.1c-.1 0-.1.1-.2.1-.5.1-1 .4-1.3.9-.1.1-.3.2-.4.3-.1.1-.2.2-.3.4-.2.2-.3.3-.3.4-.1.1-.1.2-.2.2v-.2c.1-.2.2-.4.2-.8.2-.5.2-1.1.2-1.6 0-1.4 0-1.8-.1-2.1-.1-.3-.3-.6-.6-.9-.2-.2-.5-.4-.8-.5-.3-.3-.7-.4-1.1-.5-.2-.1-.4-.3-.6-.3-.2-.1-.4-.1-.6-.1-.3 0-.5 0-.8.1l-.6.3c-.2.1-.4.2-.5.3-.6.2-1 .5-1.3.9-.2.1-.4.2-.5.3-.3.1-.5.3-.6.4-.1.1-.3.2-.4.3l-.3.3-.3.3-.2.2c-.1 0-.1.1-.2.1-.2.1-.5.4-.6.6-.2.2-.5.4-.7.7-.1.2-.3.3-.4.5-.2.2-.4.4-.5.6-.1.2-.3.4-.4.6-.2.1-.3.3-.3.4-.1.1-.2.2-.3.4l-.1.1c-.1.1-.3.2-.3.4l-.1.2c-.4.3-.5.6-.6.9v-.1-.2c0-.1.1-.2.1-.4.2-.3.3-.6.3-.9.1-.2.1-.4.1-.5.1-.3.1-.5.2-.7.1-.2.1-.3.1-.5 0-.1.1-.1.1-.2s.1-.2.1-.3v-.1c.1-.2.2-.4.2-.6l.1-.5c.2-.4.3-.9.5-1.5s.3-1.1.4-1.4v-.3c.1-.1.1-.3.2-.4 0-.1 0-.2.1-.3.2-.3.3-.6.3-1V72c.1-.2.1-.3.1-.5.1-.2.1-.4.2-.7.1-.2.1-.4.2-.6 0-.2.1-.4.1-.6.1-.4.1-.6.1-.8v-.1c0-.1.1-.3.1-.4.1-.4.1-.9 0-1.6 0-.7-.1-1.2-.2-1.6 0-.1-.1-.3-.1-.4-.1-.2-.2-.3-.3-.5-.1-.1-.1-.2-.2-.3-.2-.4-.6-.8-1-1.1l-.1-.1c-.1-.1-.2-.3-.3-.4-.2-.2-.5-.4-.7-.5-.5-.5-1-.8-1.5-.9-.3-.1-.5-.1-.7-.1h-.1c-.3 0-.5.1-.7.2h-.1c-.3.2-.7.4-.9.8-.4.5-.3 1.1-.2 1.6 0 .2.1.4.2.6l.1.2c.1.3.4.6.8.8.1.1.2.1.4.2v.7c-.1.2-.1.5-.1.7-.1.1-.1.3-.1.4l-.1.5c-.1.2-.1.4-.1.6v.1c-.1.3-.2.6-.2.8-.1.1-.1.3-.1.5v.1l-.1.1c-.2.3-.2.7-.3 1.1v.1c-.1.2-.1.3-.1.5 0 .1-.1.2-.1.3-.1.3-.1.5-.1.7-.2.3-.3.6-.4.9 0 .1-.1.2-.1.4 0 .1-.1.2-.1.4 0 .1 0 .1-.1.2-.2.2-.3.5-.3.9 0 .1-.1.2-.1.2-.1.2-.1.3-.1.5v.1c-.1.2-.2.5-.2.9 0 .1-.1.1-.1.2-.1.2-.2.4-.2.6v.2c0 .1-.1.2-.1.3 0 .1-.1.3-.1.4-.2.5-.2.8-.2 1.1V81c0 .1 0 .1-.1.2s-.2.3-.2.5l-.2.6c-.2.4-.2.7-.2 1-.1.3-.2.5-.2.8-.2.5-.3.7-.3 1 0 .2-.1.4-.1.5-.2.3-.3.6-.3 1-.1.3-.2.5-.2.7-.1.2-.1.4-.2.7-.1.2-.1.4-.1.6-.1.2-.1.4-.2.6-.1.3-.2.5-.2.7 0 .2-.1.4-.2.9-.1.3-.1.6-.1.9-.2.4-.3.9-.3 1.5 0 .3-.1.7-.1 1.2-.1.4-.1.9-.1 1.2 0 1.2.1 2 .3 2.5v.1c.1.3.3.7.8 1.1.1.1.2.1.2.2.2.5.6.7.9.8.4.3.8.5 1.3.5.8 0 1.5-.5 1.8-1.3.1-.2.1-.3.1-.5v-.1c.1-.2.3-.3.4-.5.2-.3.3-.6.3-.9l.2-.2c.3-.3.5-.8.5-1.2v-.3c.1-.1.2-.3.3-.4.1-.2.2-.3.3-.4.1-.1.2-.2.2-.4.1-.1.1-.2.2-.3l.3-.5c.1-.1.1-.3.2-.4.1-.1.1-.2.1-.2.2-.2.3-.4.4-.7.1-.1.2-.3.2-.4l.2-.2c.2-.3.3-.5.4-.8.2-.3.3-.5.4-.7.1-.3.3-.5.4-.7.1-.1.2-.3.3-.5l.3-.6v-.1l.2-.3c.3-.3.4-.6.4-.9.1-.1.1-.2.2-.3.2-.2.4-.4.5-.7.1-.1.1-.2.2-.3.2-.2.4-.4.5-.7.1-.1.2-.3.3-.5.3-.3.6-.6.9-1.1 0-.1.1-.1.1-.2l.3-.3c.3-.2.5-.5.7-.8.3-.4.6-.7.9-1l.1-.1.1-.1c0 .1-.1.1-.1.2s-.1.2-.1.3c-.1.1-.1.3-.1.3s0 .1-.1.1c-.1.3-.2.6-.2 1-.1.3-.2.5-.2.7-.1.1-.1.3-.2.4-.1.2-.2.5-.2.8 0 .1-.1.2-.1.2-.1.2-.1.4-.2.5-.1.2-.2.5-.3.8 0 .1-.1.3-.1.5 0 0 0 .1-.1.1l-.1.4c-.1.1-.1.3-.2.5 0 .1-.1.2-.1.4v.1c0 .1-.1.2-.1.3 0 .1-.1.3-.1.6v.3s0 .1-.1.3c-.1.2-.1.4-.1.6v.1c-.1.2-.2.5-.2.8v.1c-.1.4-.2 1-.4 1.7v.2c0 .9 0 1.8.3 2.5.1.6.5 1.1 1 1.3.1.1.2.2.3.4.2.2.4.4.7.5.1.1.3.2.4.3.2.1.5.2.7.2.9 0 1.4-.6 1.9-1.3 0-.1.1-.1.1-.2l.7-1.1c.1-.1.1-.2.2-.3v-.1l.1-.2.1-.2c.1-.1.1-.2.2-.4 0-.1.1-.1.1-.2.1-.1.2-.3.3-.5l.1-.2s0-.1.1-.2c0-.1.1-.1.1-.2.2-.1.3-.3.4-.5.2-.2.4-.5.4-.8 0-.1.1-.1.1-.2.1-.1.1-.2.2-.3l.1-.2.1-.1.3-.3c.2-.2.3-.4.4-.7 0-.1.1-.1.1-.2l.2-.2c.3-.2.5-.5.6-.8l.2-.2c.2-.3.4-.6.5-.8l.3-.3.1-.1c.1-.2.2-.3.2-.5.2-.1.3-.3.4-.5.2-.1.3-.3.4-.5 0 0 0-.1.1-.1.2-.2.3-.4.4-.6 0 0 0-.1.1-.1.2-.1.3-.3.4-.4.1-.1.2-.3.3-.4.1-.1.3-.3.3-.5l.3-.3c.1-.1.2-.3.3-.5.2-.1.3-.3.4-.6l.3-.3.3-.3c.1-.1.1-.2.2-.3.1-.1.3-.2.4-.3l.3-.3c.2-.1.3-.3.4-.4 0-.1.1-.1.1-.2.1-.1.2-.2.3-.2.1-.1.2-.2.2-.3l.2-.2c.2-.1.5-.3.6-.6l.1-.1c.1-.1.2-.2.2-.3l.3-.3c.3-.1.6-.2.8-.4.1 0 .1-.1.2-.1l.7-.5c.1-.1.2-.2.3-.2.1 0 .2-.1.2-.2l.2-.1c.1 0 .3-.1.4-.1-.1.1-.1.2-.2.3l-.1.1c0 .1-.1.1-.1.2-.2.2-.4.4-.5.7l-.3.6s0 .1-.1.1c-.1.2-.2.4-.3.5-.1.1-.2.2-.2.3-.1.2-.3.4-.3.6-.1.1-.2.3-.2.4 0 .1-.1.1-.1.2s-.1.2-.1.2 0 .1-.1.1c-.2.2-.4.5-.5.9-.2.2-.4.6-.4.9-.1.1-.1.3-.2.5-.4.3-.6.8-.7 1.4-.5.3-.9.8-.9 1.4V86.9c0 .1-.1.2-.1.4l-.1.1c-.1.1-.1.2-.1.2-.2.2-.4.5-.4.9-.2.2-.3.5-.4.7-.6.2-1 .8-1 1.5-.1.1-.1.3-.1.4 0 .1 0 .1-.1.2l-.1.2c-.2.3-.3.6-.3.9v.2l-.2.2c-.2.2-.3.5-.3 1-.3.3-.5.7-.5 1.1v.2c0 .2 0 .4.1.7v.1c-.1.1-.1.2-.1.3-.6.2-1 .8-1 1.5v.4c0 .4.1.7.3 1 0 0 0 .1-.1.1 0 .1-.1.2-.1.3v.1c-.2.1-.5.2-.7.4l-.1.1c-.3.3-.5.7-.5 1.1v.2c0 .2 0 .4.1.6-.4.3-.7.7-.7 1.2-.2.3-.2.6-.2.9v.3c0 .1-.1.1-.1.2 0 0 0 .1-.1.1 0 0-.1.1-.1.2-.1.2-.1.4-.1.6v.2c-.2.3-.3.6-.3 1V107c-.1.2-.1.3-.1.5-.2.2-.3.5-.3.9v.2c-.1.2-.1.4-.1.6v.4c-.2.3-.3.6-.3.9 0 .2 0 .4.1.6-.1.2-.1.4-.2.6-.1.3-.1.6-.1.9 0 .1 0 .1-.1.2-.1.2-.1.4-.1.8v2l.1.9v.6c.2.7.4 1.6 1 2.1.3.3.6.4.9.5.3.3.7.5 1.1.5.4 0 1-.1 1.5-.9.1-.2.2-.5.3-.7.1-.3.2-.6.2-1.1 0-.2-.1-.4-.2-.6 0-.1 0-.2.1-.4s.1-.5.1-.7c0-.2 0-.4-.1-.6 0-.1 0-.2-.1-.3.1-.2.1-.4.1-.6v-.1c.2-.2.3-.5.3-.8.1-.2.1-.5.1-.8.1-.2.2-.5.2-.8 0-.2 0-.3-.1-.5v-.1c.1-.1.1-.3.2-.4.1-.2.2-.5.2-.8 0-.2 0-.4-.1-.6.1-.2.3-.4.3-.6l.1-.1c.1-.1.1-.2.1-.3.1-.2.2-.3.2-.5.1-.2.1-.5 0-.7v-.3c.1-.1.1-.2.2-.4.3-.3.5-.8.5-1.2 0-.1 0-.3-.1-.4v-.1c.1-.2.1-.4.1-.7v-.2c0-.1.1-.2.1-.3.1-.1.2-.3.3-.5.4-.5.6-1 .5-1.5.1-.1.2-.3.3-.4.2-.4.3-.7.3-1.1 0-.1 0-.1.1-.2 0-.1.1-.1.1-.2.1-.2.2-.5.2-.8.2-.2.3-.5.4-.8.1-.3.2-.6.2-.8.1-.1.1-.2.2-.3.2-.2.3-.5.4-.7.1-.1.1-.2.1-.3.1-.1.1-.2.2-.3.1-.1.1-.2.2-.4 0-.1.1-.1.1-.2l.1-.1c0-.1.1-.2.2-.4.2-.3.4-.6.4-1 .2-.2.3-.4.3-.6 0-.1.1-.2.1-.3.3-.3.5-.7.5-1.2.2-.2.4-.5.5-.9v-.1c.1-.1.1-.1.1-.2.1-.2.2-.4.2-.5v-.2s0-.1.1-.1c.1-.1.2-.3.2-.6.2-.2.3-.4.4-.7V88c.2-.2.4-.5.4-.9.2-.3.3-.5.4-.7.1-.1.2-.2.2-.3l.1-.1c.2-.2.4-.5.4-.8.2-.2.3-.4.3-.6.2-.2.4-.5.5-.9.1-.1.2-.3.3-.4.1-.2.2-.3.3-.5.1-.1.2-.3.3-.4.1-.1.2-.3.3-.5 0-.1.1-.1.1-.2 0 0 0-.1.1-.1l.3-.6c.1-.1.1-.2.2-.3v-.1c.1-.1.2-.2.3-.2.2-.2.3-.4.4-.7l.3-.6c.3-.3.4-.6.5-1 .1-.1.2-.3.3-.5.1-.2.2-.3.2-.5l.1-.1.1-.1c.3-.2.5-.5.6-.8 0-.1.1-.1.1-.2.1-.1.1-.2.2-.4 0-.1 0-.1.1-.2v-.1c.3-.4.3-.7.3-1.1.6-.5.7-.9.6-1.2z"/>
									</g>
								</svg>