<svg id="Ñëîé_1" xmlns="http://www.w3.org/2000/svg" viewBox="0 0 211.4 346.8"><style>.st0{fill:#f5fafe}</style><path class="st0" d="M106.4 342.9c-.6-8.8-1.7-17.6-3.4-26.3-1-5.1-8.8-3-7.8 2.2 1.5 8 2.5 16 3.1 24.1.4 5.2 8.5 5.2 8.1 0zM127.8 328.5c1.2-10.2 3.6-20 7.3-29.6 1.8-4.9-6-7-7.8-2.2-3.9 10.3-6.3 20.8-7.6 31.7-.7 5.3 7.5 5.2 8.1.1zM110.5 293.1c-3.6-11.1-5.6-22.5-6.1-34.2-.2-5.2-8.3-5.2-8.1 0 .5 12.4 2.5 24.5 6.3 36.3 1.7 5.1 9.5 2.9 7.9-2.1zM87.5 280.5c-3.5-5.1-5.9-10.8-6.5-17-.5-5.1-8.7-5.2-8.1 0 .8 7.7 3.2 14.8 7.6 21.1 2.9 4.2 10 .2 7-4.1zM130.9 270.7c2.6-6.5 5.3-13.1 7.9-19.6 2-4.8-5.9-7-7.8-2.2-2.6 6.5-5.3 13.1-7.9 19.6-2 4.9 5.9 7 7.8 2.2zM162.3 231.9c-.8-9.7-.2-19.3 2-28.8 1.1-5.1-6.7-7.3-7.8-2.2-2.3 10.2-3.1 20.5-2.2 31 .3 5.1 8.4 5.2 8 0zM113.5 224.7c-.7-8.4-1.4-16.8-2.1-25.3-.4-5.2-8.6-5.2-8.1 0 .7 8.4 1.4 16.8 2.1 25.3.4 5.1 8.5 5.2 8.1 0zM80.1 223.9c-4.9-11.9-7.3-24.2-7.2-37.1.1-5.2-8.1-5.2-8.1 0-.2 13.6 2.3 26.7 7.4 39.3 2.1 4.7 9.9 2.6 7.9-2.2zM144.2 188.5v-35.2c0-5.2-8.1-5.2-8.1 0v35.2c-.1 5.3 8.1 5.3 8.1 0zM48.2 172.1c-2.1-8.4-4.1-16.9-6.2-25.3-1.2-5.1-9.1-2.9-7.8 2.2 2.1 8.4 4.1 16.9 6.2 25.3 1.2 5.1 9 2.9 7.8-2.2zM99.1 175.9c-.7-5.4-1.4-10.8-2-16.2-.3-2.2-1.7-4-4.1-4.1-2 0-4.3 1.9-4.1 4.1.7 5.4 1.4 10.8 2 16.2.3 2.2 1.7 4 4.1 4.1 2 0 4.3-1.9 4.1-4.1zM172.9 177.7c0-3.9 1.1-7.3 3.3-10.5 2.9-4.3-4.1-8.4-7-4.1-2.9 4.3-4.4 9.4-4.4 14.6 0 5.2 8.1 5.2 8.1 0zM119.5 150.7c-.9-7.8-1.8-15.7-2.7-23.5-.6-5.1-8.7-5.2-8.1 0 .9 7.8 1.8 15.7 2.7 23.5.6 5.1 8.7 5.1 8.1 0zM168.7 132.8c1-6.7 1.9-13.3 2.9-20 .7-5.1-7.1-7.3-7.8-2.2-1 6.7-1.9 13.3-2.9 20-.8 5.1 7 7.4 7.8 2.2zM70.8 147.5c-4.2-7.9-6.8-16.2-8.2-25-.8-5.1-8.7-3-7.8 2.2 1.5 9.5 4.6 18.4 9.1 26.9 2.4 4.6 9.4.5 6.9-4.1zM44.1 109c-1.5-4.8-3.1-9.5-4.6-14.3-1.6-5-9.4-2.8-7.8 2.2 1.5 4.8 3.1 9.5 4.6 14.3 1.6 4.9 9.4 2.8 7.8-2.2zM81.8 91.7c-.6-6.7-1.5-13.4-2.9-20.1-1-5.1-8.9-3-7.8 2.2 1.2 5.9 2.1 11.9 2.6 17.9.4 5.2 8.5 5.2 8.1 0zM132.2 110.7c0-5.8-.6-11.6-1.7-17.3-1-5.1-8.8-3-7.8 2.2.9 5 1.4 10 1.4 15.1.1 5.2 8.2 5.2 8.1 0zM156.6 87c.6-6 2.1-11.9 4.6-17.4 2.1-4.7-4.9-8.9-7-4.1-3.1 6.9-5 14-5.7 21.6-.5 5.1 7.7 5 8.1-.1zM111.8 67.4c-.4-4.8-.4-9.7.4-14.5.3-2.2-.6-4.3-2.8-5-1.9-.6-4.7.7-5 2.8-.9 5.6-1.2 11-.7 16.7.4 5.1 8.5 5.2 8.1 0zM50.8 64.1c-2.6-7.1-5.9-13.9-10-20.2-2.8-4.4-9.9-.3-7 4.1 3.7 5.8 6.8 11.8 9.2 18.3 1.7 4.8 9.6 2.7 7.8-2.2zM16.1 74.4c-3.9-2.6-6.7-6.3-8.1-10.7-1.6-5-9.4-2.8-7.8 2.2C2.3 72.3 6.3 77.7 12 81.4c4.4 2.9 8.5-4.2 4.1-7zM186 75.5c.8-5.9 1.6-11.8 2.3-17.7.3-2.2-2.1-4-4.1-4.1-2.4 0-3.8 1.9-4.1 4.1-.8 5.9-1.6 11.8-2.3 17.7-.3 2.2 2.1 4 4.1 4.1 2.4 0 3.8-2 4.1-4.1zM210.4 60.6c-.6-5.4-.3-10.6.9-15.9 1.2-5.1-6.7-7.3-7.8-2.2-1.4 6-1.8 12-1.2 18 .5 5.2 8.6 5.3 8.1.1zM140.6 47.7c-.3-2.8-.3-5.6.2-8.4.4-2.2-.6-4.4-2.8-5-2-.5-4.6.7-5 2.8-.6 3.5-.9 7-.5 10.6.2 2.2 1.7 4.1 4.1 4.1 2 0 4.2-1.9 4-4.1zM82.3 48.4c-.3-5-.5-9.9-.8-14.9-.3-5.2-8.4-5.2-8.1 0 .3 5 .5 9.9.8 14.9.2 5.2 8.4 5.2 8.1 0zM102.6 25.8c.9-6.4 1.3-12.7.9-19.2-.3-5.2-8.5-5.2-8.1 0 .4 5.7.3 11.4-.6 17-.8 5.1 7 7.3 7.8 2.2zM178.4 33c2-4.9 2.3-10.1 1.6-15.3-.3-2.2-3.1-3.4-5-2.8-2.3.6-3.1 2.8-2.8 5 .5 3.8-.2 7.5-1.6 11-.8 2 .9 4.5 2.8 5 2.3.6 4.2-.8 5-2.9zM151.2 15.7c-.4-3.9-.4-7.8-.2-11.8.3-5.2-7.9-5.2-8.1 0-.2 3.9-.1 7.8.2 11.8.2 2.2 1.7 4.1 4.1 4.1 2-.1 4.2-1.9 4-4.1zM59 25.9c-2.5-3.3-4.1-7-4.5-11.2-.4-5.2-8.5-5.2-8.1 0 .4 5.6 2.2 10.8 5.6 15.3 1.3 1.8 3.5 2.6 5.6 1.5 1.7-1 2.7-3.8 1.4-5.6zM14.3 35.4C11.8 31.7 10 27.9 9 23.6c-1.2-5.1-9-2.9-7.8 2.2 1.2 4.9 3.3 9.6 6.1 13.7 2.9 4.3 10 .2 7-4.1z"/></svg>