<svg xmlns="http://www.w3.org/2000/svg" viewBox="0 0 134 481"><style>.st2{fill:#f6f6f6}.st6{fill:#fff}</style><path d="M54.3 266.1s-27.1.8-34.8 4.7-16.2 14.1-17.3 20.7-.9 113.5-.8 118.7c0 5.2 0 54.3 4.1 57.2s16.3 12.8 49.8 13.6c33.5.8 62.4-5 67.3-12.1 4.9-7 7-7 6.2-39.1-.8-32.1 1.4-93.4.9-106-.5-12.7-.4-34-5.2-42.5-13.3-23.5-70.2-15.2-70.2-15.2z" fill="#5a7ebc"/><path d="M7.6 239.7s-.6 23.5 1.9 26.7 23.1 9.4 46.4 8.2 65.8 1.1 67.1-10c1.3-11.1 5.1-22-.1-28s-3.2-7-11.3-8.3-96.1 2.9-97.2 3.4-6.7 3.9-6.8 8z" fill="#ececef"/><path class="st2" d="M116.5 170.9s.5 60.1.3 62c-.2 1.8-34.6 5.6-45 5.2s-56.5 1.2-57.5-6.5-.9-55.4.6-60.1-1.6-5.6 4.5-6.6 95.7-3.5 97.1 6z"/><path d="M21.7 141.7s-.4 20.2.1 22.9c.5 2.7 25.6 7.1 33.5 6.8 7.9-.3 53.6 3.2 54.7-10.4 1.1-13.6 1.5-19-1.2-20.8s-87.1 1.5-87.1 1.5z" fill="#e9e8e8"/><path d="M59.4 129.6c-10.6 0-50.4.4-54.7 2.7s-6.5 5.7-2.7 7.5c3.9 1.8 47.3 6.3 82.5 4.4s51.8-1.4 49.3-7.4-11.6-7-74.4-7.2z" fill="#f1f1f2"/><path d="M31.7 105.5c-.7 2.5-3.5 23.8-.8 26.2 2.7 2.5 48.4 3.2 55.9 2.9 7.5-.3 14-1.8 14-3.2 0-1.4 1.2-25.3-1.9-26.2-3.2-.9-30.1-4.4-38.7-4.4-8.7.1-27.7 1.8-28.5 4.7z" fill="#edeced"/><path class="st2" d="M46.6 10.7s-5.4 67.4-5.3 72.4c0 5-1.6 18.2-1.7 19.5 0 1.3 9 5.3 22.4 4.8s29 2.8 27.8-6.7S79.2 11.9 77.4 7s-2.6-7-13.1-7-17 1.8-17.7 10.7z"/><path class="st6" d="M11.2 305.4c2.6-3.1 31.3-1.2 48.5-.8 11.2.3 22.3-1.1 33.5-1.8 7.7-.5 22.8-5.1 27.3 2.5 4.3 7.3 2.2 21.1 2.3 29 .1 10.4.3 20.9.5 31.3.2 15.6-.3 31.1-.2 46.7.1 8.5 2.2 29.7-4.6 35.4-3.1 2.6-12.4 2-16.1 2.5-9.9 1.2-19.9 2.4-29.8 3.2-11.5.9-23.8 1.7-35.1-.7-9.7-2.1-26.2-6.9-29-17.7-1-4 0-9.7-.1-13.8 0-9.4-.1-18.8-.1-28.2-.1-12.1.1-24.2.2-36.2 0-4.1-.6-47.6 2.7-51.4z"/><path d="M92.1 320.9H38.5c-16.3 11.4-27.2 33-27.2 58 0 37.2 20.8 73.2 54 73.2 34 0 54-36 54-73.2 0-25-10.9-46.6-27.2-58z" fill="#c4e8f0"/><path d="M89.3 320.9H41.2c-14.6 9.7-24.4 28-24.4 49.2 0 31.5 18.7 62 48.4 62 30.5 0 48.4-30.5 48.4-62 .1-21.3-9.7-39.6-24.3-49.2z" fill="#6ec5dd"/><path d="M87 320.9H43.6c-13.2 7.6-22 22-22 38.8 0 24.8 16.8 48.9 43.7 48.9 27.5 0 43.7-24.1 43.7-48.9 0-16.8-8.8-31.2-22-38.8z" fill="#349ec5"/><path d="M108.8 329.2c-2.8-4.6-5.8-9.1-8.8-13.7-.3-.4-.8-.9-1.3-.9-6.6.1-13.1.3-19.7.5-.3.1-.3.1 0 0-9.4.2-18.8.3-28.2.5-6.6.1-13.1.1-19.7.2-.5 0-1.1.7-1.4 1.3-2.6 4.2-5.2 8.5-7.6 12.8-.7 1.2-1 2.9-.8 4.3.3 2.7.9 5.3 1.5 7.9 5.4 23.1 18.1 41 38 53.8 5.9 3.8 6 3.8 11.8-.3 21.5-15.3 32.8-36.6 36.7-62.3.2-1.4.1-3.1-.5-4.1z" fill="#dfe4de"/><path d="M103.4 329.1c-1.9-2.5-3.7-5.2-5.2-8-.7-1.3-1.5-1.7-2.9-1.7l-22.2.3c-2 0-3.9.1-5.9.1l-.1.1-.1-.1c-1.3 0-2.6 0-3.9.1l-.1.1h-.1c-4 .1-8 .1-12 .2-5.5.1-11 .2-16.4.4-.7 0-1.6.4-1.9 1-2.2 3.5-4.3 7.1-6.4 10.7-.3.5-.5 1.1-.4 1.6 1.9 10.1 4.6 20 9.7 29 7.2 12.6 17.2 22.5 29.6 29.8.8.4 2.3.4 3-.1 4-2.9 8-5.8 11.6-9.1 3.1-2.9 5.8-6.3 8.6-9.5.1-.1.2-.2.2-.4v-.1c4.7-7.1 9.2-14.3 11.7-22.5 1.6-5.4 2.8-10.9 4.2-16.3.6-2.1.3-3.9-1-5.6z" fill="#e43a2c"/><path class="st6" d="M96.7 337.4c-1 3.6-1.9 6.8-2.9 10.8-.2.7-1.2 1.3-1.6.8-1-1.3-1.9-2.5-2.8-3.6l-.1-.1c-.2-.3-.4-.5-.6-.8-.1-.2-.3-.3-.4-.5v-.1-.1l-.7-.7c-.7-.7-1.5-1.4-2-2.2-1-1.7-2.3-1.9-4.1-1.8-2.9.2-5.9.1-8.9.2.2 2.5.5 4.8.7 7.1.8 4.9 1.6 9.8 2.5 14.7.3 1.8.5 3.6.8 5.4.3 1.8.5 3.6.7 5.4.1.6-.3 1.5-.8 1.9-3 2.8-6.1 5.6-9.2 8.4-.5.4-1.2.4-1.7.1-1.4-1.2-2.8-2.5-4.1-3.7-2.2-2-6.1-5.1-5.8-7.7.5-4.7.8-9.5 1.3-14.3.4-3.8 1-7.5 1.5-11.3.1-1.8.3-3.7.4-5.9-2.2 0-3.8-.1-5.9-.1h-1.8c-4.3.1-4.4.4-5.9 2-1.3 1.6-4.8 6.4-6.2 8.2-.5.7-1.7 0-1.9-.8-.8-2.9-1.6-5.1-2.3-7.8-1.6-6.7-1.4-7.8 2.7-13.4.3-.4 1.3-.3 2-.4 7.6-.1 15.2-.2 22.9-.4l29.4-.6c.4 0 .8.2 1 .4 1.1 1.5 2.2 3.1 3.2 4.7 1.4 2.2 1.2 4.1.6 6.2z"/></svg>